{
  "accessors": [
    {
      "bufferView": 2,
      "componentType": 5126,
      "count": 14261,
      "max": [
        0.49798670411109924,
        0.49519962072372437,
        0.26934897899627686
      ],
      "min": [
        -0.4979833662509918,
        -0.4957594573497772,
        -0.26934897899627686
      ],
      "type": "VEC3"
    },
    {
      "bufferView": 2,
      "byteOffset": 171132,
      "componentType": 5126,
      "count": 14261,
      "max": [
        1.0,
        0.9999032020568848,
        1.0
      ],
      "min": [
        -0.9995168447494507,
        -0.9898849129676819,
        -1.0
      ],
      "type": "VEC3"
    },
    {
      "bufferView": 1,
      "componentType": 5126,
      "count": 14261,
      "max": [
        0.9999465942382813,
        0.5792543888092041
      ],
      "min": [
        0.00020268559455871582,
        2.8848648071289063e-05
      ],
      "type": "VEC2"
    },
    {
      "bufferView": 1,
      "byteOffset": 114088,
      "componentType": 5126,
      "count": 14261,
      "max": [
        0.9999465942382813,
        0.5792543888092041
      ],
      "min": [
        0.00020268559455871582,
        2.8848648071289063e-05
      ],
      "type": "VEC2"
    },
    {
      "bufferView": 1,
      "byteOffset": 228176,
      "componentType": 5126,
      "count": 14261,
      "max": [
        0.9999465942382813,
        0.5792543888092041
      ],
      "min": [
        0.00020268559455871582,
        2.8848648071289063e-05
      ],
      "type": "VEC2"
    },
    {
      "bufferView": 0,
      "componentType": 5125,
      "count": 83244,
      "type": "SCALAR"
    }
  ],
  "asset": {
    "extras": {
      "author": "rindirendiy0 (https://sketchfab.com/rindirendiy0)",
      "license": "CC-BY-4.0 (http://creativecommons.org/licenses/by/4.0/)",
      "source": "https://sketchfab.com/3d-models/bintang-d636c4cb565945e184e04046a222ebd7",
      "title": "Bintang"
    },
    "generator": "Sketchfab-15.50.0",
    "version": "2.0"
  },
  "bufferViews": [
    {
      "buffer": 0,
      "byteLength": 332976,
      "name": "floatBufferViews",
      "target": 34963
    },
    {
      "buffer": 0,
      "byteLength": 342264,
      "byteOffset": 332976,
      "byteStride": 8,
      "name": "floatBufferViews",
      "target": 34962
    },
    {
      "buffer": 0,
      "byteLength": 342264,
      "byteOffset": 675240,
      "byteStride": 12,
      "name": "floatBufferViews",
      "target": 34962
    }
  ],
  "buffers": [
    {
      "byteLength": 1017504,
      "uri": "scene.bin"
    }
  ],
  "extensionsRequired": [
    "KHR_materials_pbrSpecularGlossiness"
  ],
  "extensionsUsed": [
    "KHR_materials_pbrSpecularGlossiness"
  ],
  "images": [
    {
      "uri": "textures/material_diffuse.png"
    },
    {
      "uri": "textures/material_specularGlossiness.png"
    }
  ],
  "materials": [
    {
      "doubleSided": true,
      "extensions": {
        "KHR_materials_pbrSpecularGlossiness": {
          "diffuseFactor": [
            1.0,
            1.0,
            1.0,
            1.0
          ],
          "diffuseTexture": {
            "index": 0
          },
          "glossinessFactor": 1.0,
          "specularFactor": [
            1.0,
            1.0,
            1.0
          ],
          "specularGlossinessTexture": {
            "index": 1
          }
        }
      },
      "name": "material"
    }
  ],
  "meshes": [
    {
      "name": "Object_0",
      "primitives": [
        {
          "attributes": {
            "NORMAL": 1,
            "POSITION": 0,
            "TEXCOORD_0": 2,
            "TEXCOORD_1": 3,
            "TEXCOORD_2": 4
          },
          "indices": 5,
          "material": 0,
          "mode": 4
        }
      ]
    }
  ],
  "nodes": [
    {
      "children": [
        1
      ],
      "matrix": [
        1.0,
        0.0,
        0.0,
        0.0,
        0.0,
        2.220446049250313e-16,
        -1.0,
        0.0,
        0.0,
        1.0,
        2.220446049250313e-16,
        0.0,
        0.0,
        0.0,
        0.0,
        1.0
      ],
      "name": "Sketchfab_model"
    },
    {
      "children": [
        2
      ],
      "name": "root"
    },
    {
      "children": [
        3
      ],
      "matrix": [
        1.0,
        0.0,
        0.0,
        0.0,
        0.0,
        2.220446049250313e-16,
        1.0,
        0.0,
        0.0,
        -1.0,
        2.220446049250313e-16,
        0.0,
        0.0,
        0.0,
        0.0,
        1.0
      ],
      "name": "GLTF_SceneRootNode"
    },
    {
      "children": [
        4
      ],
      "name": "root_1"
    },
    {
      "children": [
        5
      ],
      "matrix": [
        0.1204155683517456,
        0.0,
        0.0,
        0.0,
        0.0,
        0.11639515310525894,
        0.0,
        0.0,
        0.0,
        0.0,
        0.0602077841758728,
        0.0,
        -0.0013400411698967218,
        0.0016771412920206785,
        0.2000122219324112,
        1.0
      ],
      "name": "_0"
    },
    {
      "mesh": 0,
      "name": "Object_5"
    }
  ],
  "samplers": [
    {
      "magFilter": 9729,
      "minFilter": 9987,
      "wrapS": 10497,
      "wrapT": 10497
    }
  ],
  "scene": 0,
  "scenes": [
    {
      "name": "Sketchfab_Scene",
      "nodes": [
        0
      ]
    }
  ],
  "textures": [
    {
      "sampler": 0,
      "source": 0
    },
    {
      "sampler": 0,
      "source": 1
    }
  ]
}
