{
  "accessors": [
    {
      "bufferView": 2,
      "componentType": 5126,
      "count": 34490,
      "max": [
        4.17820405960083,
        -6.702499866485596,
        16.919248580932617
      ],
      "min": [
        -6.3257551193237305,
        -11.006401062011719,
        -10.805115699768066
      ],
      "type": "VEC3"
    },
    {
      "bufferView": 2,
      "byteOffset": 413880,
      "componentType": 5126,
      "count": 34490,
      "max": [
        0.9996677041053772,
        0.9999872446060181,
        0.9997321963310242
      ],
      "min": [
        -0.9999558925628662,
        -0.9999819993972778,
        -0.9997208714485168
      ],
      "type": "VEC3"
    },
    {
      "bufferView": 3,
      "componentType": 5126,
      "count": 34490,
      "max": [
        1.0,
        0.9999991655349731,
        0.9940608143806458,
        1.0
      ],
      "min": [
        -1.0,
        -0.9999999403953552,
        -0.9735108017921448,
        -1.0
      ],
      "type": "VEC4"
    },
    {
      "bufferView": 1,
      "componentType": 5126,
      "count": 34490,
      "max": [
        0.9997559785842896,
        0.5817869901657104
      ],
      "min": [
        0.00024399999529123306,
        0.00024399999529123306
      ],
      "type": "VEC2"
    },
    {
      "bufferView": 0,
      "componentType": 5125,
      "count": 149988,
      "type": "SCALAR"
    }
  ],
  "asset": {
    "extras": {
      "author": "Kea-Makerlab (https://sketchfab.com/Kea-Makerlab)",
      "license": "CC-BY-4.0 (http://creativecommons.org/licenses/by/4.0/)",
      "source": "https://sketchfab.com/3d-models/crocodile-toy-dd02470afbb7406f84560810b0de1841",
      "title": "Crocodile toy"
    },
    "generator": "Sketchfab-12.65.0",
    "version": "2.0"
  },
  "bufferViews": [
    {
      "buffer": 0,
      "byteLength": 599952,
      "name": "floatBufferViews",
      "target": 34963
    },
    {
      "buffer": 0,
      "byteLength": 275920,
      "byteOffset": 599952,
      "byteStride": 8,
      "name": "floatBufferViews",
      "target": 34962
    },
    {
      "buffer": 0,
      "byteLength": 827760,
      "byteOffset": 875872,
      "byteStride": 12,
      "name": "floatBufferViews",
      "target": 34962
    },
    {
      "buffer": 0,
      "byteLength": 551840,
      "byteOffset": 1703632,
      "byteStride": 16,
      "name": "floatBufferViews",
      "target": 34962
    }
  ],
  "buffers": [
    {
      "byteLength": 2255472,
      "uri": "scene.bin"
    }
  ],
  "images": [
    {
      "uri": "textures/kea-krokodile-50k-textured_Material_u1_v1_baseColor.png"
    },
    {
      "uri": "textures/kea-krokodile-50k-textured_Material_u1_v1_metallicRoughness.png"
    },
    {
      "uri": "textures/kea-krokodile-50k-textured_Material_u1_v1_normal.png"
    }
  ],
  "materials": [
    {
      "doubleSided": true,
      "name": "kea-krokodile-50k-textured_Material_u1_v1",
      "normalTexture": {
        "index": 2
      },
      "pbrMetallicRoughness": {
        "baseColorTexture": {
          "index": 0
        },
        "metallicFactor": 0.0,
        "metallicRoughnessTexture": {
          "index": 1
        }
      }
    }
  ],
  "meshes": [
    {
      "name": "Object_0",
      "primitives": [
        {
          "attributes": {
            "NORMAL": 1,
            "POSITION": 0,
            "TANGENT": 2,
            "TEXCOORD_0": 3
          },
          "indices": 4,
          "material": 0,
          "mode": 4
        }
      ]
    }
  ],
  "nodes": [
    {
      "children": [
        1
      ],
      "matrix": [
        1.0,
        0.0,
        0.0,
        0.0,
        0.0,
        -1.0,
        -2.220446049250313e-16,
        0.0,
        0.0,
        2.220446049250313e-16,
        -1.0,
        0.0,
        0.0,
        -5.797366142272952,
        11.911521911621092,
        1.0
      ],
      "name": "Sketchfab_model"
    },
    {
      "children": [
        2
      ],
      "name": "kea-krokodile-50k-textured.obj.cleaner.materialmerger.gles"
    },
    {
      "mesh": 0,
      "name": "Object_2"
    }
  ],
  "samplers": [
    {
      "magFilter": 9729,
      "minFilter": 9987,
      "wrapS": 10497,
      "wrapT": 10497
    }
  ],
  "scene": 0,
  "scenes": [
    {
      "name": "Sketchfab_Scene",
      "nodes": [
        0
      ]
    }
  ],
  "textures": [
    {
      "sampler": 0,
      "source": 0
    },
    {
      "sampler": 0,
      "source": 1
    },
    {
      "sampler": 0,
      "source": 2
    }
  ]
}
