{
  "accessors": [
    {
      "bufferView": 2,
      "componentType": 5126,
      "count": 65532,
      "max": [
        2.921766996383667,
        -0.8722200393676758,
        7.075404167175293
      ],
      "min": [
        -4.92561674118042,
        -10.596220016479492,
        -4.4382452964782715
      ],
      "type": "VEC3"
    },
    {
      "bufferView": 2,
      "byteOffset": 786384,
      "componentType": 5126,
      "count": 65532,
      "max": [
        0.9999770522117615,
        0.9999894499778748,
        0.9999613165855408
      ],
      "min": [
        -0.9999973773956299,
        -1.0,
        -0.9999788403511047
      ],
      "type": "VEC3"
    },
    {
      "bufferView": 3,
      "componentType": 5126,
      "count": 65532,
      "max": [
        0.9960784316062927,
        0.9960784316062927,
        0.9960784316062927,
        1.0
      ],
      "min": [
        0.0941176488995552,
        0.08235294371843338,
        0.0235294122248888,
        1.0
      ],
      "type": "VEC4"
    },
    {
      "bufferView": 1,
      "componentType": 5126,
      "count": 65532,
      "max": [
        0.9996119737625122,
        0.7355960011482239
      ],
      "min": [
        0.00024399999529123306,
        0.0007389999809674919
      ],
      "type": "VEC2"
    },
    {
      "bufferView": 0,
      "componentType": 5125,
      "count": 344205,
      "type": "SCALAR"
    },
    {
      "bufferView": 2,
      "byteOffset": 1572768,
      "componentType": 5126,
      "count": 65532,
      "max": [
        2.275432586669922,
        -0.9982937574386597,
        6.840782165527344
      ],
      "min": [
        -4.910280227661133,
        -8.714859962463379,
        -4.222469329833984
      ],
      "type": "VEC3"
    },
    {
      "bufferView": 2,
      "byteOffset": 2359152,
      "componentType": 5126,
      "count": 65532,
      "max": [
        0.9998552203178406,
        0.9982064962387085,
        0.9999905824661255
      ],
      "min": [
        -0.9999999403953552,
        -1.0,
        -0.999984622001648
      ],
      "type": "VEC3"
    },
    {
      "bufferView": 3,
      "byteOffset": 1048512,
      "componentType": 5126,
      "count": 65532,
      "max": [
        0.9960784316062927,
        0.9960784316062927,
        0.9960784316062927,
        1.0
      ],
      "min": [
        0.07450980693101883,
        0.08235294371843338,
        0.04313725605607033,
        1.0
      ],
      "type": "VEC4"
    },
    {
      "bufferView": 1,
      "byteOffset": 524256,
      "componentType": 5126,
      "count": 65532,
      "max": [
        0.9953230023384094,
        0.7473139762878418
      ],
      "min": [
        0.022216999903321266,
        0.0007740000146441162
      ],
      "type": "VEC2"
    },
    {
      "bufferView": 0,
      "byteOffset": 1376820,
      "componentType": 5125,
      "count": 341796,
      "type": "SCALAR"
    },
    {
      "bufferView": 2,
      "byteOffset": 3145536,
      "componentType": 5126,
      "count": 57910,
      "max": [
        2.921766996383667,
        -0.9580779075622559,
        6.989444255828857
      ],
      "min": [
        -3.5892350673675537,
        -10.996085166931152,
        -4.4382452964782715
      ],
      "type": "VEC3"
    },
    {
      "bufferView": 2,
      "byteOffset": 3840456,
      "componentType": 5126,
      "count": 57910,
      "max": [
        0.9999796748161316,
        0.9998535513877869,
        0.9999905824661255
      ],
      "min": [
        -0.9999973773956299,
        -0.9999999403953552,
        -0.9999940991401672
      ],
      "type": "VEC3"
    },
    {
      "bufferView": 3,
      "byteOffset": 2097024,
      "componentType": 5126,
      "count": 57910,
      "max": [
        0.9960784316062927,
        0.9960784316062927,
        0.9960784316062927,
        1.0
      ],
      "min": [
        0.09803921729326248,
        0.0941176488995552,
        0.08235294371843338,
        1.0
      ],
      "type": "VEC4"
    },
    {
      "bufferView": 1,
      "byteOffset": 1048512,
      "componentType": 5126,
      "count": 57910,
      "max": [
        0.9996129870414734,
        0.6867679953575134
      ],
      "min": [
        0.009207000024616718,
        0.0007949999999254942
      ],
      "type": "VEC2"
    },
    {
      "bufferView": 0,
      "byteOffset": 2744004,
      "componentType": 5125,
      "count": 262296,
      "type": "SCALAR"
    }
  ],
  "asset": {
    "extras": {
      "author": "The Hunt Museum (https://sketchfab.com/TheHuntMuseum)",
      "license": "CC0-1.0 (http://creativecommons.org/publicdomain/zero/1.0/)",
      "source": "https://sketchfab.com/3d-models/hunt-museum-horse-outside-1cd8a30ce7594f369fbf7f68fc336f02",
      "title": "Hunt Museum - Horse Outside"
    },
    "generator": "Sketchfab-12.67.0",
    "version": "2.0"
  },
  "bufferViews": [
    {
      "buffer": 0,
      "byteLength": 3793188,
      "name": "floatBufferViews",
      "target": 34963
    },
    {
      "buffer": 0,
      "byteLength": 1511792,
      "byteOffset": 3793188,
      "byteStride": 8,
      "name": "floatBufferViews",
      "target": 34962
    },
    {
      "buffer": 0,
      "byteLength": 4535376,
      "byteOffset": 5304980,
      "byteStride": 12,
      "name": "floatBufferViews",
      "target": 34962
    },
    {
      "buffer": 0,
      "byteLength": 3023584,
      "byteOffset": 9840356,
      "byteStride": 16,
      "name": "floatBufferViews",
      "target": 34962
    }
  ],
  "buffers": [
    {
      "byteLength": 12863940,
      "uri": "scene.bin"
    }
  ],
  "images": [
    {
      "uri": "textures/Limerick_Horse_Material_u1_v1_baseColor.jpeg"
    }
  ],
  "materials": [
    {
      "doubleSided": true,
      "name": "Limerick_Horse_Material_u1_v1",
      "pbrMetallicRoughness": {
        "baseColorTexture": {
          "index": 0
        },
        "metallicFactor": 0.0,
        "roughnessFactor": 0.0
      }
    }
  ],
  "meshes": [
    {
      "name": "Object_0",
      "primitives": [
        {
          "attributes": {
            "COLOR_0": 2,
            "NORMAL": 1,
            "POSITION": 0,
            "TEXCOORD_0": 3
          },
          "indices": 4,
          "material": 0,
          "mode": 4
        }
      ]
    },
    {
      "name": "Object_1",
      "primitives": [
        {
          "attributes": {
            "COLOR_0": 7,
            "NORMAL": 6,
            "POSITION": 5,
            "TEXCOORD_0": 8
          },
          "indices": 9,
          "material": 0,
          "mode": 4
        }
      ]
    },
    {
      "name": "Object_2",
      "primitives": [
        {
          "attributes": {
            "COLOR_0": 12,
            "NORMAL": 11,
            "POSITION": 10,
            "TEXCOORD_0": 13
          },
          "indices": 14,
          "material": 0,
          "mode": 4
        }
      ]
    }
  ],
  "nodes": [
    {
      "children": [
        1
      ],
      "matrix": [
        -0.208509162068367,
        -2.1716415990162964e-16,
        0.978020429611206,
        0.0,
        -0.01064234972000122,
        -0.999940812587738,
        -0.0022688969038429097,
        0.0,
        0.9779624938964844,
        -0.01088152080774312,
        0.2084968090057373,
        0.0,
        -2.563521146774292,
        -4.6008834838867205,
        6.625690937042235,
        1.0
      ],
      "name": "Sketchfab_model"
    },
    {
      "children": [
        2,
        3,
        4
      ],
      "name": "Limerick_Horse.obj.cleaner.materialmerger.gles"
    },
    {
      "mesh": 0,
      "name": "Object_2"
    },
    {
      "mesh": 1,
      "name": "Object_3"
    },
    {
      "mesh": 2,
      "name": "Object_4"
    }
  ],
  "samplers": [
    {
      "magFilter": 9729,
      "minFilter": 9987,
      "wrapS": 10497,
      "wrapT": 10497
    }
  ],
  "scene": 0,
  "scenes": [
    {
      "name": "Sketchfab_Scene",
      "nodes": [
        0
      ]
    }
  ],
  "textures": [
    {
      "sampler": 0,
      "source": 0
    }
  ]
}
