{
  "accessors": [
    {
      "bufferView": 2,
      "componentType": 5126,
      "count": 22119,
      "max": [
        0.49951350688934326,
        0.499925434589386,
        0.3148719370365143
      ],
      "min": [
        -0.4996100664138794,
        -0.4995769262313843,
        -0.3148719370365143
      ],
      "type": "VEC3"
    },
    {
      "bufferView": 2,
      "byteOffset": 265428,
      "componentType": 5126,
      "count": 22119,
      "max": [
        0.9935404062271118,
        0.9994267821311951,
        0.9999979138374329
      ],
      "min": [
        -0.9906421899795532,
        -1.0,
        -0.9999979138374329
      ],
      "type": "VEC3"
    },
    {
      "bufferView": 1,
      "componentType": 5126,
      "count": 22119,
      "max": [
        0.9253420233726501,
        0.9999010562896729
      ],
      "min": [
        0.00016145408153533936,
        0.0002015829086303711
      ],
      "type": "VEC2"
    },
    {
      "bufferView": 1,
      "byteOffset": 176952,
      "componentType": 5126,
      "count": 22119,
      "max": [
        0.9253420233726501,
        0.9999010562896729
      ],
      "min": [
        0.00016145408153533936,
        0.0002015829086303711
      ],
      "type": "VEC2"
    },
    {
      "bufferView": 1,
      "byteOffset": 353904,
      "componentType": 5126,
      "count": 22119,
      "max": [
        0.9253420233726501,
        0.9999010562896729
      ],
      "min": [
        0.00016145408153533936,
        0.0002015829086303711
      ],
      "type": "VEC2"
    },
    {
      "bufferView": 0,
      "componentType": 5125,
      "count": 129612,
      "type": "SCALAR"
    }
  ],
  "asset": {
    "extras": {
      "author": "vallenciazhng_ (https://sketchfab.com/vallenciazhng_)",
      "license": "CC-BY-4.0 (http://creativecommons.org/licenses/by/4.0/)",
      "source": "https://sketchfab.com/3d-models/little-star-102f3c5376a64ef0b2654661d9a48094",
      "title": "Little Star"
    },
    "generator": "Sketchfab-15.27.0",
    "version": "2.0"
  },
  "bufferViews": [
    {
      "buffer": 0,
      "byteLength": 518448,
      "name": "floatBufferViews",
      "target": 34963
    },
    {
      "buffer": 0,
      "byteLength": 530856,
      "byteOffset": 518448,
      "byteStride": 8,
      "name": "floatBufferViews",
      "target": 34962
    },
    {
      "buffer": 0,
      "byteLength": 530856,
      "byteOffset": 1049304,
      "byteStride": 12,
      "name": "floatBufferViews",
      "target": 34962
    }
  ],
  "buffers": [
    {
      "byteLength": 1580160,
      "uri": "scene.bin"
    }
  ],
  "extensionsRequired": [
    "KHR_materials_pbrSpecularGlossiness"
  ],
  "extensionsUsed": [
    "KHR_materials_pbrSpecularGlossiness"
  ],
  "images": [
    {
      "uri": "textures/material_diffuse.png"
    },
    {
      "uri": "textures/material_specularGlossiness.png"
    }
  ],
  "materials": [
    {
      "doubleSided": true,
      "extensions": {
        "KHR_materials_pbrSpecularGlossiness": {
          "diffuseFactor": [
            1.0,
            1.0,
            1.0,
            1.0
          ],
          "diffuseTexture": {
            "index": 0
          },
          "glossinessFactor": 1.0,
          "specularFactor": [
            1.0,
            1.0,
            1.0
          ],
          "specularGlossinessTexture": {
            "index": 1
          }
        }
      },
      "name": "material"
    }
  ],
  "meshes": [
    {
      "name": "Object_0",
      "primitives": [
        {
          "attributes": {
            "NORMAL": 1,
            "POSITION": 0,
            "TEXCOORD_0": 2,
            "TEXCOORD_1": 3,
            "TEXCOORD_2": 4
          },
          "indices": 5,
          "material": 0,
          "mode": 4
        }
      ]
    }
  ],
  "nodes": [
    {
      "children": [
        1
      ],
      "matrix": [
        1.0,
        0.0,
        0.0,
        0.0,
        0.0,
        2.220446049250313e-16,
        -1.0,
        0.0,
        0.0,
        1.0,
        2.220446049250313e-16,
        0.0,
        0.0,
        0.0,
        0.0,
        1.0
      ],
      "name": "Sketchfab_model"
    },
    {
      "children": [
        2
      ],
      "name": "root"
    },
    {
      "children": [
        3
      ],
      "matrix": [
        1.0,
        0.0,
        0.0,
        0.0,
        0.0,
        2.220446049250313e-16,
        1.0,
        0.0,
        0.0,
        -1.0,
        2.220446049250313e-16,
        0.0,
        0.0,
        0.0,
        0.0,
        1.0
      ],
      "name": "GLTF_SceneRootNode"
    },
    {
      "children": [
        4
      ],
      "name": "root_1"
    },
    {
      "children": [
        5
      ],
      "matrix": [
        0.5344476699829102,
        0.0,
        0.0,
        0.0,
        0.0,
        0.5002683997154236,
        0.0,
        0.0,
        0.0,
        0.0,
        0.2672238349914551,
        0.0,
        0.004579025786370039,
        -0.0018921055598184466,
        0.2967129051685333,
        1.0
      ],
      "name": "_0"
    },
    {
      "mesh": 0,
      "name": "Object_5"
    }
  ],
  "samplers": [
    {
      "magFilter": 9729,
      "minFilter": 9987,
      "wrapS": 10497,
      "wrapT": 10497
    }
  ],
  "scene": 0,
  "scenes": [
    {
      "name": "Sketchfab_Scene",
      "nodes": [
        0
      ]
    }
  ],
  "textures": [
    {
      "sampler": 0,
      "source": 0
    },
    {
      "sampler": 0,
      "source": 1
    }
  ]
}
