{
  "accessors": [
    {
      "bufferView": 2,
      "componentType": 5126,
      "count": 27371,
      "max": [
        0.11211548000574112,
        0.42086559534072876,
        0.19490069150924683
      ],
      "min": [
        -0.10204092413187027,
        -0.40812984108924866,
        -0.16169561445713043
      ],
      "type": "VEC3"
    },
    {
      "bufferView": 2,
      "byteOffset": 328452,
      "componentType": 5126,
      "count": 27371,
      "max": [
        0.999999463558197,
        0.9999954104423523,
        0.9999977350234985
      ],
      "min": [
        -0.9999988675117493,
        -0.9999955296516418,
        -0.9999980926513672
      ],
      "type": "VEC3"
    },
    {
      "bufferView": 1,
      "componentType": 5126,
      "count": 27371,
      "max": [
        0.9999411702156067,
        0.9994732141494751
      ],
      "min": [
        3.8504134863615036e-05,
        1.9868591607519193e-06
      ],
      "type": "VEC2"
    },
    {
      "bufferView": 1,
      "byteOffset": 218968,
      "componentType": 5126,
      "count": 27371,
      "max": [
        0.9999411702156067,
        0.9994732141494751
      ],
      "min": [
        3.8504134863615036e-05,
        1.9868591607519193e-06
      ],
      "type": "VEC2"
    },
    {
      "bufferView": 1,
      "byteOffset": 437936,
      "componentType": 5126,
      "count": 27371,
      "max": [
        0.9999411702156067,
        0.9994732141494751
      ],
      "min": [
        3.8504134863615036e-05,
        1.9868591607519193e-06
      ],
      "type": "VEC2"
    },
    {
      "bufferView": 0,
      "componentType": 5125,
      "count": 142074,
      "type": "SCALAR"
    }
  ],
  "asset": {
    "extras": {
      "author": "pmanuelian (https://sketchfab.com/pmanuelian)",
      "license": "CC-BY-NC-SA-4.0 (http://creativecommons.org/licenses/by-nc-sa/4.0/)",
      "source": "https://sketchfab.com/3d-models/statue-of-osiris-acd3ca25a6804e8e8f7512116beea29b",
      "title": "Statue of Osiris"
    },
    "generator": "Sketchfab-15.30.0",
    "version": "2.0"
  },
  "bufferViews": [
    {
      "buffer": 0,
      "byteLength": 568296,
      "name": "floatBufferViews",
      "target": 34963
    },
    {
      "buffer": 0,
      "byteLength": 656904,
      "byteOffset": 568296,
      "byteStride": 8,
      "name": "floatBufferViews",
      "target": 34962
    },
    {
      "buffer": 0,
      "byteLength": 656904,
      "byteOffset": 1225200,
      "byteStride": 12,
      "name": "floatBufferViews",
      "target": 34962
    }
  ],
  "buffers": [
    {
      "byteLength": 1882104,
      "uri": "scene.bin"
    }
  ],
  "extensionsUsed": [
    "KHR_materials_unlit"
  ],
  "images": [
    {
      "uri": "textures/material_0_baseColor.jpeg"
    }
  ],
  "materials": [
    {
      "extensions": {
        "KHR_materials_unlit": {}
      },
      "name": "material_0",
      "pbrMetallicRoughness": {
        "baseColorTexture": {
          "index": 0
        },
        "metallicFactor": 0.0
      }
    }
  ],
  "meshes": [
    {
      "name": "Object_0",
      "primitives": [
        {
          "attributes": {
            "NORMAL": 1,
            "POSITION": 0,
            "TEXCOORD_0": 2,
            "TEXCOORD_1": 3,
            "TEXCOORD_2": 4
          },
          "indices": 5,
          "material": 0,
          "mode": 4
        }
      ]
    }
  ],
  "nodes": [
    {
      "children": [
        1
      ],
      "matrix": [
        1.0,
        0.0,
        0.0,
        0.0,
        0.0,
        2.220446049250313e-16,
        -1.0,
        0.0,
        0.0,
        1.0,
        2.220446049250313e-16,
        0.0,
        0.0,
        0.0,
        0.0,
        1.0
      ],
      "name": "Sketchfab_model"
    },
    {
      "children": [
        2
      ],
      "name": "root"
    },
    {
      "children": [
        3
      ],
      "matrix": [
        1.0,
        0.0,
        0.0,
        0.0,
        0.0,
        2.220446049250313e-16,
        1.0,
        0.0,
        0.0,
        -1.0,
        2.220446049250313e-16,
        0.0,
        0.0,
        0.0,
        0.0,
        1.0
      ],
      "name": "GLTF_SceneRootNode"
    },
    {
      "children": [
        4
      ],
      "name": "_0"
    },
    {
      "mesh": 0,
      "name": "Object_4"
    }
  ],
  "samplers": [
    {
      "magFilter": 9729,
      "minFilter": 9987,
      "wrapS": 10497,
      "wrapT": 10497
    }
  ],
  "scene": 0,
  "scenes": [
    {
      "name": "Sketchfab_Scene",
      "nodes": [
        0
      ]
    }
  ],
  "textures": [
    {
      "sampler": 0,
      "source": 0
    }
  ]
}
