{
  "accessors": [
    {
      "bufferView": 2,
      "componentType": 5126,
      "count": 65532,
      "max": [
        6.155831336975098,
        1.9073486328125e-06,
        6.448375225067139
      ],
      "min": [
        -3.67085862159729,
        -21.779434204101563,
        -3.4031405448913574
      ],
      "type": "VEC3"
    },
    {
      "bufferView": 2,
      "byteOffset": 786384,
      "componentType": 5126,
      "count": 65532,
      "max": [
        0.9999925494194031,
        0.9999905824661255,
        0.9999893307685852
      ],
      "min": [
        -0.9999735951423645,
        -0.9999905824661255,
        -0.9999977946281433
      ],
      "type": "VEC3"
    },
    {
      "bufferView": 1,
      "componentType": 5126,
      "count": 65532,
      "max": [
        0.9991700053215027,
        0.9196779727935791
      ],
      "min": [
        0.00024399999529123306,
        0.0003659999929368496
      ],
      "type": "VEC2"
    },
    {
      "bufferView": 0,
      "componentType": 5125,
      "count": 343755,
      "type": "SCALAR"
    },
    {
      "bufferView": 2,
      "byteOffset": 1572768,
      "componentType": 5126,
      "count": 65532,
      "max": [
        5.984339714050293,
        -0.001888275146484375,
        6.494417667388916
      ],
      "min": [
        -3.5820376873016357,
        -29.74897003173828,
        -2.245816707611084
      ],
      "type": "VEC3"
    },
    {
      "bufferView": 2,
      "byteOffset": 2359152,
      "componentType": 5126,
      "count": 65532,
      "max": [
        0.999965250492096,
        0.9997428059577942,
        0.9999998211860657
      ],
      "min": [
        -0.9999969601631165,
        -1.0,
        -0.9999866485595703
      ],
      "type": "VEC3"
    },
    {
      "bufferView": 1,
      "byteOffset": 524256,
      "componentType": 5126,
      "count": 65532,
      "max": [
        0.9839839935302734,
        0.9157710075378418
      ],
      "min": [
        0.001567999948747456,
        0.00031800000579096377
      ],
      "type": "VEC2"
    },
    {
      "bufferView": 0,
      "byteOffset": 1375020,
      "componentType": 5125,
      "count": 335958,
      "type": "SCALAR"
    },
    {
      "bufferView": 2,
      "byteOffset": 3145536,
      "componentType": 5126,
      "count": 65532,
      "max": [
        6.063014984130859,
        1.9073486328125e-06,
        5.518270492553711
      ],
      "min": [
        -2.635316848754883,
        -29.58407974243164,
        -2.1608424186706543
      ],
      "type": "VEC3"
    },
    {
      "bufferView": 2,
      "byteOffset": 3931920,
      "componentType": 5126,
      "count": 65532,
      "max": [
        0.9999855756759644,
        0.9998654127120972,
        0.999977707862854
      ],
      "min": [
        -0.9999864101409912,
        -0.9999988675117493,
        -0.9999990463256836
      ],
      "type": "VEC3"
    },
    {
      "bufferView": 1,
      "byteOffset": 1048512,
      "componentType": 5126,
      "count": 65532,
      "max": [
        0.9997239708900452,
        0.9194689989089966
      ],
      "min": [
        0.00024399999529123306,
        0.0002479999966453761
      ],
      "type": "VEC2"
    },
    {
      "bufferView": 0,
      "byteOffset": 2718852,
      "componentType": 5125,
      "count": 330159,
      "type": "SCALAR"
    },
    {
      "bufferView": 2,
      "byteOffset": 4718304,
      "componentType": 5126,
      "count": 65532,
      "max": [
        6.1752729415893555,
        -0.04417228698730469,
        6.532163143157959
      ],
      "min": [
        -3.6759192943573,
        -30.348655700683594,
        -3.3970561027526855
      ],
      "type": "VEC3"
    },
    {
      "bufferView": 2,
      "byteOffset": 5504688,
      "componentType": 5126,
      "count": 65532,
      "max": [
        0.999993622303009,
        0.9999898672103882,
        0.9999465346336365
      ],
      "min": [
        -0.9999969601631165,
        -0.9999792575836182,
        -0.9999901652336121
      ],
      "type": "VEC3"
    },
    {
      "bufferView": 1,
      "byteOffset": 1572768,
      "componentType": 5126,
      "count": 65532,
      "max": [
        0.9990419745445251,
        0.919634997844696
      ],
      "min": [
        0.00024399999529123306,
        0.00024500000290572643
      ],
      "type": "VEC2"
    },
    {
      "bufferView": 0,
      "byteOffset": 4039488,
      "componentType": 5125,
      "count": 306891,
      "type": "SCALAR"
    },
    {
      "bufferView": 2,
      "byteOffset": 6291072,
      "componentType": 5126,
      "count": 41681,
      "max": [
        5.537174224853516,
        1.9073486328125e-06,
        6.529813766479492
      ],
      "min": [
        -2.425565004348755,
        -29.82318115234375,
        -3.38063383102417
      ],
      "type": "VEC3"
    },
    {
      "bufferView": 2,
      "byteOffset": 6791244,
      "componentType": 5126,
      "count": 41681,
      "max": [
        0.9999915361404419,
        0.9999343156814575,
        0.9999670386314392
      ],
      "min": [
        -0.9999957084655762,
        -0.999363899230957,
        -0.9999901652336121
      ],
      "type": "VEC3"
    },
    {
      "bufferView": 1,
      "byteOffset": 2097024,
      "componentType": 5126,
      "count": 41681,
      "max": [
        0.9978780150413513,
        0.8446599841117859
      ],
      "min": [
        0.00024399999529123306,
        0.00025499999173916876
      ],
      "type": "VEC2"
    },
    {
      "bufferView": 0,
      "byteOffset": 5267052,
      "componentType": 5125,
      "count": 183219,
      "type": "SCALAR"
    }
  ],
  "asset": {
    "extras": {
      "author": "danielpett (https://sketchfab.com/danielpett)",
      "license": "CC-BY-4.0 (http://creativecommons.org/licenses/by/4.0/)",
      "source": "https://sketchfab.com/3d-models/osiris-7766da51162247688bcc21b196866ee3",
      "title": "Osiris"
    },
    "generator": "Sketchfab-15.24.0",
    "version": "2.0"
  },
  "bufferViews": [
    {
      "buffer": 0,
      "byteLength": 5999928,
      "name": "floatBufferViews",
      "target": 34963
    },
    {
      "buffer": 0,
      "byteLength": 2430472,
      "byteOffset": 5999928,
      "byteStride": 8,
      "name": "floatBufferViews",
      "target": 34962
    },
    {
      "buffer": 0,
      "byteLength": 7291416,
      "byteOffset": 8430400,
      "byteStride": 12,
      "name": "floatBufferViews",
      "target": 34962
    }
  ],
  "buffers": [
    {
      "byteLength": 15721816,
      "uri": "scene.bin"
    }
  ],
  "images": [
    {
      "uri": "textures/osiris_LOD0_u0_v0_baseColor.jpeg"
    }
  ],
  "materials": [
    {
      "doubleSided": true,
      "name": "osiris_LOD0_u0_v0",
      "pbrMetallicRoughness": {
        "baseColorTexture": {
          "index": 0
        },
        "metallicFactor": 0.0
      }
    }
  ],
  "meshes": [
    {
      "name": "Object_0",
      "primitives": [
        {
          "attributes": {
            "NORMAL": 1,
            "POSITION": 0,
            "TEXCOORD_0": 2
          },
          "indices": 3,
          "material": 0,
          "mode": 4
        }
      ]
    },
    {
      "name": "Object_1",
      "primitives": [
        {
          "attributes": {
            "NORMAL": 5,
            "POSITION": 4,
            "TEXCOORD_0": 6
          },
          "indices": 7,
          "material": 0,
          "mode": 4
        }
      ]
    },
    {
      "name": "Object_2",
      "primitives": [
        {
          "attributes": {
            "NORMAL": 9,
            "POSITION": 8,
            "TEXCOORD_0": 10
          },
          "indices": 11,
          "material": 0,
          "mode": 4
        }
      ]
    },
    {
      "name": "Object_3",
      "primitives": [
        {
          "attributes": {
            "NORMAL": 13,
            "POSITION": 12,
            "TEXCOORD_0": 14
          },
          "indices": 15,
          "material": 0,
          "mode": 4
        }
      ]
    },
    {
      "name": "Object_4",
      "primitives": [
        {
          "attributes": {
            "NORMAL": 17,
            "POSITION": 16,
            "TEXCOORD_0": 18
          },
          "indices": 19,
          "material": 0,
          "mode": 4
        }
      ]
    }
  ],
  "nodes": [
    {
      "children": [
        1
      ],
      "matrix": [
        -0.7604840993881226,
        3.5541424380940617e-16,
        0.6493565440177917,
        0.0,
        -1.6653345369377348e-16,
        -1.0,
        3.3306690738754696e-16,
        0.0,
        0.6493565440177917,
        1.6420551598714305e-16,
        0.7604840993881226,
        0.0,
        0.0,
        0.0,
        0.0,
        1.0
      ],
      "name": "Sketchfab_model"
    },
    {
      "children": [
        2,
        3,
        4,
        5,
        6
      ],
      "name": "osiris_LOD0.obj.cleaner.materialmerger.gles"
    },
    {
      "mesh": 0,
      "name": "Object_2"
    },
    {
      "mesh": 1,
      "name": "Object_3"
    },
    {
      "mesh": 2,
      "name": "Object_4"
    },
    {
      "mesh": 3,
      "name": "Object_5"
    },
    {
      "mesh": 4,
      "name": "Object_6"
    }
  ],
  "samplers": [
    {
      "magFilter": 9729,
      "minFilter": 9987,
      "wrapS": 10497,
      "wrapT": 10497
    }
  ],
  "scene": 0,
  "scenes": [
    {
      "name": "Sketchfab_Scene",
      "nodes": [
        0
      ]
    }
  ],
  "textures": [
    {
      "sampler": 0,
      "source": 0
    }
  ]
}
