{
  "accessors": [
    {
      "bufferView": 2,
      "componentType": 5126,
      "count": 17301,
      "max": [
        0.4974331259727478,
        0.4999999701976776,
        0.1694728583097458
      ],
      "min": [
        -0.49937257170677185,
        -0.4999999701976776,
        -0.1694728583097458
      ],
      "type": "VEC3"
    },
    {
      "bufferView": 2,
      "byteOffset": 207612,
      "componentType": 5126,
      "count": 17301,
      "max": [
        1.0,
        1.0,
        1.0
      ],
      "min": [
        -1.0,
        -0.9999905228614807,
        -1.0
      ],
      "type": "VEC3"
    },
    {
      "bufferView": 1,
      "componentType": 5126,
      "count": 17301,
      "max": [
        0.9998885989189148,
        0.9238927960395813
      ],
      "min": [
        0.0001427512470399961,
        0.00012020766735076904
      ],
      "type": "VEC2"
    },
    {
      "bufferView": 1,
      "byteOffset": 138408,
      "componentType": 5126,
      "count": 17301,
      "max": [
        0.9998885989189148,
        0.9238927960395813
      ],
      "min": [
        0.0001427512470399961,
        0.00012020766735076904
      ],
      "type": "VEC2"
    },
    {
      "bufferView": 1,
      "byteOffset": 276816,
      "componentType": 5126,
      "count": 17301,
      "max": [
        0.9998885989189148,
        0.9238927960395813
      ],
      "min": [
        0.0001427512470399961,
        0.00012020766735076904
      ],
      "type": "VEC2"
    },
    {
      "bufferView": 0,
      "componentType": 5125,
      "count": 96060,
      "type": "SCALAR"
    }
  ],
  "asset": {
    "extras": {
      "author": "Astari28 (https://sketchfab.com/Astari28)",
      "license": "CC-BY-NC-SA-4.0 (http://creativecommons.org/licenses/by-nc-sa/4.0/)",
      "source": "https://sketchfab.com/3d-models/jamur-mushroom-a4c9495f32c9446d87aed4a6f1382cc5",
      "title": "Jamur (Mushroom)"
    },
    "generator": "Sketchfab-14.64.0",
    "version": "2.0"
  },
  "bufferViews": [
    {
      "buffer": 0,
      "byteLength": 384240,
      "name": "floatBufferViews",
      "target": 34963
    },
    {
      "buffer": 0,
      "byteLength": 415224,
      "byteOffset": 384240,
      "byteStride": 8,
      "name": "floatBufferViews",
      "target": 34962
    },
    {
      "buffer": 0,
      "byteLength": 415224,
      "byteOffset": 799464,
      "byteStride": 12,
      "name": "floatBufferViews",
      "target": 34962
    }
  ],
  "buffers": [
    {
      "byteLength": 1214688,
      "uri": "scene.bin"
    }
  ],
  "extensionsRequired": [
    "KHR_materials_pbrSpecularGlossiness"
  ],
  "extensionsUsed": [
    "KHR_materials_pbrSpecularGlossiness"
  ],
  "images": [
    {
      "uri": "textures/material_diffuse.png"
    },
    {
      "uri": "textures/material_specularGlossiness.png"
    }
  ],
  "materials": [
    {
      "doubleSided": true,
      "extensions": {
        "KHR_materials_pbrSpecularGlossiness": {
          "diffuseFactor": [
            1.0,
            1.0,
            1.0,
            1.0
          ],
          "diffuseTexture": {
            "index": 0
          },
          "glossinessFactor": 1.0,
          "specularFactor": [
            1.0,
            1.0,
            1.0
          ],
          "specularGlossinessTexture": {
            "index": 1,
            "texCoord": 1
          }
        }
      },
      "name": "material"
    }
  ],
  "meshes": [
    {
      "name": "Object_0",
      "primitives": [
        {
          "attributes": {
            "NORMAL": 1,
            "POSITION": 0,
            "TEXCOORD_0": 2,
            "TEXCOORD_1": 3,
            "TEXCOORD_2": 4
          },
          "indices": 5,
          "material": 0,
          "mode": 4
        }
      ]
    }
  ],
  "nodes": [
    {
      "children": [
        1
      ],
      "matrix": [
        1.0,
        0.0,
        0.0,
        0.0,
        0.0,
        2.220446049250313e-16,
        -1.0,
        0.0,
        0.0,
        1.0,
        2.220446049250313e-16,
        0.0,
        0.0,
        0.0,
        0.0,
        1.0
      ],
      "name": "Sketchfab_model"
    },
    {
      "children": [
        2
      ],
      "name": "root"
    },
    {
      "children": [
        3
      ],
      "matrix": [
        1.0,
        0.0,
        0.0,
        0.0,
        0.0,
        2.220446049250313e-16,
        1.0,
        0.0,
        0.0,
        -1.0,
        2.220446049250313e-16,
        0.0,
        0.0,
        0.0,
        0.0,
        1.0
      ],
      "name": "GLTF_SceneRootNode"
    },
    {
      "children": [
        4
      ],
      "name": "root_1"
    },
    {
      "children": [
        5
      ],
      "matrix": [
        0.7877059238204858,
        -0.017985810299719983,
        0.048545734806655895,
        0.0,
        -0.0002095278933417801,
        1.0715153198082628,
        0.4003877521994211,
        0.0,
        -0.037508469086518254,
        -0.19976926054066838,
        0.5346016776231791,
        0.0,
        -0.02442837879061699,
        0.16182257235050201,
        0.08718787133693695,
        1.0
      ],
      "name": "_0"
    },
    {
      "mesh": 0,
      "name": "Object_5"
    }
  ],
  "samplers": [
    {
      "magFilter": 9729,
      "minFilter": 9987,
      "wrapS": 10497,
      "wrapT": 10497
    }
  ],
  "scene": 0,
  "scenes": [
    {
      "name": "Sketchfab_Scene",
      "nodes": [
        0
      ]
    }
  ],
  "textures": [
    {
      "sampler": 0,
      "source": 0
    },
    {
      "sampler": 0,
      "source": 1
    }
  ]
}
