{
  "accessors": [
    {
      "bufferView": 2,
      "componentType": 5126,
      "count": 7198,
      "max": [
        0.4958668053150177,
        0.488520085811615,
        0.2955726087093353
      ],
      "min": [
        -0.49537479877471924,
        -0.4850134551525116,
        -0.2955726087093353
      ],
      "type": "VEC3"
    },
    {
      "bufferView": 2,
      "byteOffset": 86376,
      "componentType": 5126,
      "count": 7198,
      "max": [
        0.9999407529830933,
        0.9987534880638123,
        0.999996542930603
      ],
      "min": [
        -0.9987853765487671,
        -1.0,
        -0.999996542930603
      ],
      "type": "VEC3"
    },
    {
      "bufferView": 1,
      "componentType": 5126,
      "count": 7198,
      "max": [
        0.999919593334198,
        0.6285210847854614
      ],
      "min": [
        0.0001657845568843186,
        3.62396240234375e-05
      ],
      "type": "VEC2"
    },
    {
      "bufferView": 1,
      "byteOffset": 57584,
      "componentType": 5126,
      "count": 7198,
      "max": [
        0.999919593334198,
        0.6285210847854614
      ],
      "min": [
        0.0001657845568843186,
        3.62396240234375e-05
      ],
      "type": "VEC2"
    },
    {
      "bufferView": 1,
      "byteOffset": 115168,
      "componentType": 5126,
      "count": 7198,
      "max": [
        0.999919593334198,
        0.6285210847854614
      ],
      "min": [
        0.0001657845568843186,
        3.62396240234375e-05
      ],
      "type": "VEC2"
    },
    {
      "bufferView": 0,
      "componentType": 5125,
      "count": 42150,
      "type": "SCALAR"
    },
    {
      "bufferView": 2,
      "byteOffset": 172752,
      "componentType": 5126,
      "count": 3342,
      "max": [
        0.47152191400527954,
        0.4848836362361908,
        0.34138593077659607
      ],
      "min": [
        -0.4771993160247803,
        -0.48246026039123535,
        -0.34138593077659607
      ],
      "type": "VEC3"
    },
    {
      "bufferView": 2,
      "byteOffset": 212856,
      "componentType": 5126,
      "count": 3342,
      "max": [
        0.993699848651886,
        0.9998915791511536,
        0.9998676776885986
      ],
      "min": [
        -0.9999998211860657,
        -0.9998799562454224,
        -0.9998676776885986
      ],
      "type": "VEC3"
    },
    {
      "bufferView": 1,
      "byteOffset": 172752,
      "componentType": 5126,
      "count": 3342,
      "max": [
        0.7433885335922241,
        0.9997932314872742
      ],
      "min": [
        0.0001131296157836914,
        0.00022993981838226318
      ],
      "type": "VEC2"
    },
    {
      "bufferView": 1,
      "byteOffset": 199488,
      "componentType": 5126,
      "count": 3342,
      "max": [
        0.7433885335922241,
        0.9997932314872742
      ],
      "min": [
        0.0001131296157836914,
        0.00022993981838226318
      ],
      "type": "VEC2"
    },
    {
      "bufferView": 1,
      "byteOffset": 226224,
      "componentType": 5126,
      "count": 3342,
      "max": [
        0.7433885335922241,
        0.9997932314872742
      ],
      "min": [
        0.0001131296157836914,
        0.00022993981838226318
      ],
      "type": "VEC2"
    },
    {
      "bufferView": 0,
      "byteOffset": 168600,
      "componentType": 5125,
      "count": 19266,
      "type": "SCALAR"
    }
  ],
  "asset": {
    "extras": {
      "author": "Jumiratul Hasanah (https://sketchfab.com/Jumiratul)",
      "license": "CC-BY-4.0 (http://creativecommons.org/licenses/by/4.0/)",
      "source": "https://sketchfab.com/3d-models/jamur-jumii-96593032a4024f6ba84efdb575ab6fc7",
      "title": "Jamur Jumii"
    },
    "generator": "Sketchfab-15.49.0",
    "version": "2.0"
  },
  "bufferViews": [
    {
      "buffer": 0,
      "byteLength": 245664,
      "name": "floatBufferViews",
      "target": 34963
    },
    {
      "buffer": 0,
      "byteLength": 252960,
      "byteOffset": 245664,
      "byteStride": 8,
      "name": "floatBufferViews",
      "target": 34962
    },
    {
      "buffer": 0,
      "byteLength": 252960,
      "byteOffset": 498624,
      "byteStride": 12,
      "name": "floatBufferViews",
      "target": 34962
    }
  ],
  "buffers": [
    {
      "byteLength": 751584,
      "uri": "scene.bin"
    }
  ],
  "extensionsRequired": [
    "KHR_materials_pbrSpecularGlossiness"
  ],
  "extensionsUsed": [
    "KHR_materials_pbrSpecularGlossiness"
  ],
  "images": [
    {
      "uri": "textures/material_diffuse.png"
    },
    {
      "uri": "textures/material_specularGlossiness.png"
    },
    {
      "uri": "textures/material_1_diffuse.png"
    },
    {
      "uri": "textures/material_1_specularGlossiness.png"
    }
  ],
  "materials": [
    {
      "doubleSided": true,
      "extensions": {
        "KHR_materials_pbrSpecularGlossiness": {
          "diffuseFactor": [
            1.0,
            1.0,
            1.0,
            1.0
          ],
          "diffuseTexture": {
            "index": 0
          },
          "glossinessFactor": 1.0,
          "specularFactor": [
            1.0,
            1.0,
            1.0
          ],
          "specularGlossinessTexture": {
            "index": 1
          }
        }
      },
      "name": "material"
    },
    {
      "doubleSided": true,
      "extensions": {
        "KHR_materials_pbrSpecularGlossiness": {
          "diffuseFactor": [
            1.0,
            1.0,
            1.0,
            1.0
          ],
          "diffuseTexture": {
            "index": 2
          },
          "glossinessFactor": 1.0,
          "specularFactor": [
            1.0,
            1.0,
            1.0
          ],
          "specularGlossinessTexture": {
            "index": 3,
            "texCoord": 1
          }
        }
      },
      "name": "material_1"
    }
  ],
  "meshes": [
    {
      "name": "Object_0",
      "primitives": [
        {
          "attributes": {
            "NORMAL": 1,
            "POSITION": 0,
            "TEXCOORD_0": 2,
            "TEXCOORD_1": 3,
            "TEXCOORD_2": 4
          },
          "indices": 5,
          "material": 0,
          "mode": 4
        }
      ]
    },
    {
      "name": "Object_1",
      "primitives": [
        {
          "attributes": {
            "NORMAL": 7,
            "POSITION": 6,
            "TEXCOORD_0": 8,
            "TEXCOORD_1": 9,
            "TEXCOORD_2": 10
          },
          "indices": 11,
          "material": 1,
          "mode": 4
        }
      ]
    }
  ],
  "nodes": [
    {
      "children": [
        1
      ],
      "matrix": [
        1.0,
        0.0,
        0.0,
        0.0,
        0.0,
        2.220446049250313e-16,
        -1.0,
        0.0,
        0.0,
        1.0,
        2.220446049250313e-16,
        0.0,
        0.0,
        0.0,
        0.0,
        1.0
      ],
      "name": "Sketchfab_model"
    },
    {
      "children": [
        2
      ],
      "name": "root"
    },
    {
      "children": [
        3
      ],
      "matrix": [
        1.0,
        0.0,
        0.0,
        0.0,
        0.0,
        2.220446049250313e-16,
        1.0,
        0.0,
        0.0,
        -1.0,
        2.220446049250313e-16,
        0.0,
        0.0,
        0.0,
        0.0,
        1.0
      ],
      "name": "GLTF_SceneRootNode"
    },
    {
      "children": [
        4,
        6
      ],
      "name": "root_2"
    },
    {
      "children": [
        5
      ],
      "matrix": [
        0.0903363823890686,
        0.0,
        0.0,
        0.0,
        0.0,
        0.05610295385122299,
        0.0,
        0.0,
        0.0,
        0.0,
        0.0451681911945343,
        0.0,
        0.03186986967921257,
        0.07111947238445282,
        0.10161230713129044,
        1.0
      ],
      "name": "_0"
    },
    {
      "mesh": 0,
      "name": "Object_5"
    },
    {
      "children": [
        7
      ],
      "matrix": [
        0.04185648635029793,
        0.0,
        0.0,
        0.0,
        0.0,
        0.0350436195731163,
        0.0,
        0.0,
        0.0,
        0.0,
        0.020928243175148964,
        0.0,
        0.027556028217077255,
        0.02859737165272236,
        0.09724194556474686,
        1.0
      ],
      "name": "_1"
    },
    {
      "mesh": 1,
      "name": "Object_7"
    }
  ],
  "samplers": [
    {
      "magFilter": 9729,
      "minFilter": 9987,
      "wrapS": 10497,
      "wrapT": 10497
    }
  ],
  "scene": 0,
  "scenes": [
    {
      "name": "Sketchfab_Scene",
      "nodes": [
        0
      ]
    }
  ],
  "textures": [
    {
      "sampler": 0,
      "source": 0
    },
    {
      "sampler": 0,
      "source": 1
    },
    {
      "sampler": 0,
      "source": 2
    },
    {
      "sampler": 0,
      "source": 3
    }
  ]
}
