{
  "accessors": [
    {
      "bufferView": 2,
      "componentType": 5126,
      "count": 65532,
      "max": [
        2.564500093460083,
        9.095359802246094,
        11.680700302124023
      ],
      "min": [
        -3.9729599952697754,
        -9.444580078125,
        -0.07012800127267838
      ],
      "type": "VEC3"
    },
    {
      "bufferView": 2,
      "byteOffset": 786384,
      "componentType": 5126,
      "count": 65532,
      "max": [
        0.9999865293502808,
        0.999988317489624,
        0.9999994039535522
      ],
      "min": [
        -0.999956488609314,
        -0.999843180179596,
        -0.9999988079071045
      ],
      "type": "VEC3"
    },
    {
      "bufferView": 3,
      "componentType": 5126,
      "count": 65532,
      "max": [
        0.9999688863754272,
        0.9999994039535522,
        0.9999887943267822,
        1.0
      ],
      "min": [
        -0.9999750852584839,
        -0.9999914765357971,
        -0.9206897020339966,
        -1.0
      ],
      "type": "VEC4"
    },
    {
      "bufferView": 1,
      "componentType": 5126,
      "count": 65532,
      "max": [
        0.957144021987915,
        0.7613930106163025
      ],
      "min": [
        0.010236999951303005,
        0.1921519935131073
      ],
      "type": "VEC2"
    },
    {
      "bufferView": 0,
      "componentType": 5125,
      "count": 380583,
      "type": "SCALAR"
    },
    {
      "bufferView": 2,
      "byteOffset": 1572768,
      "componentType": 5126,
      "count": 65532,
      "max": [
        4.465439796447754,
        9.093729972839355,
        9.535490036010742
      ],
      "min": [
        -4.466050148010254,
        -5.310890197753906,
        -0.003727999981492758
      ],
      "type": "VEC3"
    },
    {
      "bufferView": 2,
      "byteOffset": 2359152,
      "componentType": 5126,
      "count": 65532,
      "max": [
        0.9999579191207886,
        0.9999421834945679,
        0.992824375629425
      ],
      "min": [
        -0.9999521970748901,
        -0.9999898672103882,
        -0.9999973773956299
      ],
      "type": "VEC3"
    },
    {
      "bufferView": 3,
      "byteOffset": 1048512,
      "componentType": 5126,
      "count": 65532,
      "max": [
        0.9977041482925415,
        0.9999893307685852,
        0.9918981194496155,
        1.0
      ],
      "min": [
        -0.9999679923057556,
        -0.9999997019767761,
        -0.9942022562026978,
        -1.0
      ],
      "type": "VEC4"
    },
    {
      "bufferView": 1,
      "byteOffset": 524256,
      "componentType": 5126,
      "count": 65532,
      "max": [
        0.9110820293426514,
        0.989126980304718
      ],
      "min": [
        0.014708000235259533,
        0.010138999670743942
      ],
      "type": "VEC2"
    },
    {
      "bufferView": 0,
      "byteOffset": 1522332,
      "componentType": 5125,
      "count": 377361,
      "type": "SCALAR"
    },
    {
      "bufferView": 2,
      "byteOffset": 3145536,
      "componentType": 5126,
      "count": 65532,
      "max": [
        4.465439796447754,
        9.389129638671875,
        10.823599815368652
      ],
      "min": [
        -4.425250053405762,
        -9.440190315246582,
        0.01317100040614605
      ],
      "type": "VEC3"
    },
    {
      "bufferView": 2,
      "byteOffset": 3931920,
      "componentType": 5126,
      "count": 65532,
      "max": [
        0.9999055862426758,
        0.9999498128890991,
        0.9998311400413513
      ],
      "min": [
        -0.9998196959495544,
        -0.9999310970306396,
        -0.9994441270828247
      ],
      "type": "VEC3"
    },
    {
      "bufferView": 3,
      "byteOffset": 2097024,
      "componentType": 5126,
      "count": 65532,
      "max": [
        0.9999338388442993,
        0.9999610781669617,
        0.9999902248382568,
        1.0
      ],
      "min": [
        -0.9998843669891357,
        -0.9998915791511536,
        -0.9999996423721313,
        -1.0
      ],
      "type": "VEC4"
    },
    {
      "bufferView": 1,
      "byteOffset": 1048512,
      "componentType": 5126,
      "count": 65532,
      "max": [
        0.986096978187561,
        0.9894490242004395
      ],
      "min": [
        0.14217400550842285,
        0.22935199737548828
      ],
      "type": "VEC2"
    },
    {
      "bufferView": 0,
      "byteOffset": 3031776,
      "componentType": 5125,
      "count": 244398,
      "type": "SCALAR"
    },
    {
      "bufferView": 2,
      "byteOffset": 4718304,
      "componentType": 5126,
      "count": 27638,
      "max": [
        3.974030017852783,
        9.30346965789795,
        11.140999794006348
      ],
      "min": [
        -1.9439799785614014,
        -9.400219917297363,
        -0.07019399851560593
      ],
      "type": "VEC3"
    },
    {
      "bufferView": 2,
      "byteOffset": 5049960,
      "componentType": 5126,
      "count": 27638,
      "max": [
        0.9999488592147827,
        0.9999725818634033,
        0.9999632835388184
      ],
      "min": [
        -0.999924898147583,
        -0.9997366070747375,
        -0.9999963045120239
      ],
      "type": "VEC3"
    },
    {
      "bufferView": 3,
      "byteOffset": 3145536,
      "componentType": 5126,
      "count": 27638,
      "max": [
        0.9999379515647888,
        0.9998704195022583,
        0.999972939491272,
        1.0
      ],
      "min": [
        -0.9967653751373291,
        -0.999445915222168,
        -0.9972431063652039,
        -1.0
      ],
      "type": "VEC4"
    },
    {
      "bufferView": 1,
      "byteOffset": 1572768,
      "componentType": 5126,
      "count": 27638,
      "max": [
        0.9863989949226379,
        0.9893389940261841
      ],
      "min": [
        0.011156000196933746,
        0.03730899840593338
      ],
      "type": "VEC2"
    },
    {
      "bufferView": 0,
      "byteOffset": 4009368,
      "componentType": 5125,
      "count": 155802,
      "type": "SCALAR"
    },
    {
      "bufferView": 2,
      "byteOffset": 5381616,
      "componentType": 5126,
      "count": 15872,
      "max": [
        1.1265100240707397,
        -7.262720108032227,
        9.35299015045166
      ],
      "min": [
        -1.1265100240707397,
        -8.08292007446289,
        8.54131031036377
      ],
      "type": "VEC3"
    },
    {
      "bufferView": 2,
      "byteOffset": 5572080,
      "componentType": 5126,
      "count": 15872,
      "max": [
        0.997610867023468,
        0.99592524766922,
        0.997610867023468
      ],
      "min": [
        -0.997610867023468,
        -0.9959448575973511,
        -0.997610867023468
      ],
      "type": "VEC3"
    },
    {
      "bufferView": 3,
      "byteOffset": 3587744,
      "componentType": 5126,
      "count": 15872,
      "max": [
        0.9999808669090271,
        0.9988085031509399,
        0.999982476234436,
        1.0
      ],
      "min": [
        -0.42974475026130676,
        -0.9988081455230713,
        -0.41028037667274475,
        1.0
      ],
      "type": "VEC4"
    },
    {
      "bufferView": 1,
      "byteOffset": 1793872,
      "componentType": 5126,
      "count": 15872,
      "max": [
        0.9885069727897644,
        0.9900000095367432
      ],
      "min": [
        0.009999999776482582,
        0.009999999776482582
      ],
      "type": "VEC2"
    },
    {
      "bufferView": 0,
      "byteOffset": 4632576,
      "componentType": 5125,
      "count": 23808,
      "type": "SCALAR"
    }
  ],
  "asset": {
    "extras": {
      "author": "Pat Crandley (https://sketchfab.com/pcrandley)",
      "license": "CC-BY-4.0 (http://creativecommons.org/licenses/by/4.0/)",
      "source": "https://sketchfab.com/3d-models/sculpting-shack-bear-9501ebf9f3f54176a7d2863b6f912be7",
      "title": "Sculpting Shack - Bear"
    },
    "generator": "Sketchfab-12.68.0",
    "version": "2.0"
  },
  "bufferViews": [
    {
      "buffer": 0,
      "byteLength": 4727808,
      "name": "floatBufferViews",
      "target": 34963
    },
    {
      "buffer": 0,
      "byteLength": 1920848,
      "byteOffset": 4727808,
      "byteStride": 8,
      "name": "floatBufferViews",
      "target": 34962
    },
    {
      "buffer": 0,
      "byteLength": 5762544,
      "byteOffset": 6648656,
      "byteStride": 12,
      "name": "floatBufferViews",
      "target": 34962
    },
    {
      "buffer": 0,
      "byteLength": 3841696,
      "byteOffset": 12411200,
      "byteStride": 16,
      "name": "floatBufferViews",
      "target": 34962
    }
  ],
  "buffers": [
    {
      "byteLength": 16252896,
      "uri": "scene.bin"
    }
  ],
  "images": [
    {
      "uri": "textures/Body_baseColor.jpeg"
    },
    {
      "uri": "textures/Body_metallicRoughness.png"
    },
    {
      "uri": "textures/Body_normal.png"
    },
    {
      "uri": "textures/None_baseColor.jpeg"
    },
    {
      "uri": "textures/None_metallicRoughness.png"
    },
    {
      "uri": "textures/None_normal.png"
    }
  ],
  "materials": [
    {
      "doubleSided": true,
      "name": "Body",
      "normalTexture": {
        "index": 2
      },
      "occlusionTexture": {
        "index": 1
      },
      "pbrMetallicRoughness": {
        "baseColorTexture": {
          "index": 0
        },
        "metallicRoughnessTexture": {
          "index": 1
        },
        "roughnessFactor": 0.7982127330986387
      }
    },
    {
      "doubleSided": true,
      "name": "None",
      "normalTexture": {
        "index": 5
      },
      "occlusionTexture": {
        "index": 4
      },
      "pbrMetallicRoughness": {
        "baseColorTexture": {
          "index": 3
        },
        "metallicRoughnessTexture": {
          "index": 4
        },
        "roughnessFactor": 0.0
      }
    }
  ],
  "meshes": [
    {
      "name": "Object_0",
      "primitives": [
        {
          "attributes": {
            "NORMAL": 1,
            "POSITION": 0,
            "TANGENT": 2,
            "TEXCOORD_0": 3
          },
          "indices": 4,
          "material": 0,
          "mode": 4
        }
      ]
    },
    {
      "name": "Object_1",
      "primitives": [
        {
          "attributes": {
            "NORMAL": 6,
            "POSITION": 5,
            "TANGENT": 7,
            "TEXCOORD_0": 8
          },
          "indices": 9,
          "material": 0,
          "mode": 4
        }
      ]
    },
    {
      "name": "Object_2",
      "primitives": [
        {
          "attributes": {
            "NORMAL": 11,
            "POSITION": 10,
            "TANGENT": 12,
            "TEXCOORD_0": 13
          },
          "indices": 14,
          "material": 0,
          "mode": 4
        }
      ]
    },
    {
      "name": "Object_3",
      "primitives": [
        {
          "attributes": {
            "NORMAL": 16,
            "POSITION": 15,
            "TANGENT": 17,
            "TEXCOORD_0": 18
          },
          "indices": 19,
          "material": 0,
          "mode": 4
        }
      ]
    },
    {
      "name": "Object_4",
      "primitives": [
        {
          "attributes": {
            "NORMAL": 21,
            "POSITION": 20,
            "TANGENT": 22,
            "TEXCOORD_0": 23
          },
          "indices": 24,
          "material": 1,
          "mode": 4
        }
      ]
    }
  ],
  "nodes": [
    {
      "children": [
        1
      ],
      "matrix": [
        1.0,
        0.0,
        0.0,
        0.0,
        0.0,
        2.220446049250313e-16,
        -1.0,
        0.0,
        0.0,
        1.0,
        2.220446049250313e-16,
        0.0,
        0.0,
        0.0,
        0.0,
        1.0
      ],
      "name": "Sketchfab_model"
    },
    {
      "children": [
        2,
        3,
        4,
        5,
        6
      ],
      "name": "bear_v003.obj.cleaner.materialmerger.gles"
    },
    {
      "mesh": 0,
      "name": "Object_2"
    },
    {
      "mesh": 1,
      "name": "Object_3"
    },
    {
      "mesh": 2,
      "name": "Object_4"
    },
    {
      "mesh": 3,
      "name": "Object_5"
    },
    {
      "mesh": 4,
      "name": "Object_6"
    }
  ],
  "samplers": [
    {
      "magFilter": 9729,
      "minFilter": 9987,
      "wrapS": 10497,
      "wrapT": 10497
    }
  ],
  "scene": 0,
  "scenes": [
    {
      "name": "Sketchfab_Scene",
      "nodes": [
        0
      ]
    }
  ],
  "textures": [
    {
      "sampler": 0,
      "source": 0
    },
    {
      "sampler": 0,
      "source": 1
    },
    {
      "sampler": 0,
      "source": 2
    },
    {
      "sampler": 0,
      "source": 3
    },
    {
      "sampler": 0,
      "source": 4
    },
    {
      "sampler": 0,
      "source": 5
    }
  ]
}
