{
  "accessors": [
    {
      "bufferView": 2,
      "componentType": 5126,
      "count": 48067,
      "max": [
        1.5827374458312988,
        1.2591321468353271,
        1.5813583135604858
      ],
      "min": [
        -1.5827374458312988,
        -1.6510788202285767,
        -1.5947179794311523
      ],
      "type": "VEC3"
    },
    {
      "bufferView": 2,
      "byteOffset": 576804,
      "componentType": 5126,
      "count": 48067,
      "max": [
        0.9999757409095764,
        1.0,
        0.9998801350593567
      ],
      "min": [
        -0.9999758005142212,
        -1.0,
        -0.9998014569282532
      ],
      "type": "VEC3"
    },
    {
      "bufferView": 1,
      "componentType": 5126,
      "count": 48067,
      "max": [
        1.0001438856124878,
        1.000000238418579
      ],
      "min": [
        -0.00014384168025571853,
        0.010000007227063179
      ],
      "type": "VEC2"
    },
    {
      "bufferView": 0,
      "componentType": 5125,
      "count": 242688,
      "type": "SCALAR"
    },
    {
      "bufferView": 2,
      "byteOffset": 1153608,
      "componentType": 5126,
      "count": 16362,
      "max": [
        1.7597461938858032,
        3.501386880874634,
        1.7597464323043823
      ],
      "min": [
        -1.7597463130950928,
        -2.0064351558685303,
        -1.7597465515136719
      ],
      "type": "VEC3"
    },
    {
      "bufferView": 2,
      "byteOffset": 1349952,
      "componentType": 5126,
      "count": 16362,
      "max": [
        0.9995582103729248,
        0.886561930179596,
        0.99955815076828
      ],
      "min": [
        -0.9995580315589905,
        -1.0,
        -0.9995580911636353
      ],
      "type": "VEC3"
    },
    {
      "bufferView": 1,
      "byteOffset": 384536,
      "componentType": 5126,
      "count": 16362,
      "max": [
        1.0000001192092896,
        1.000000238418579
      ],
      "min": [
        0.0,
        0.010000006295740604
      ],
      "type": "VEC2"
    },
    {
      "bufferView": 0,
      "byteOffset": 970752,
      "componentType": 5125,
      "count": 63360,
      "type": "SCALAR"
    },
    {
      "bufferView": 2,
      "byteOffset": 1546296,
      "componentType": 5126,
      "count": 752,
      "max": [
        1.7597461938858032,
        3.54779052734375,
        1.625793695449829
      ],
      "min": [
        -1.5303560495376587,
        -1.6062366962432861,
        -1.5303531885147095
      ],
      "type": "VEC3"
    },
    {
      "bufferView": 2,
      "byteOffset": 1555320,
      "componentType": 5126,
      "count": 752,
      "max": [
        0.9995582103729248,
        0.999995768070221,
        0.961197555065155
      ],
      "min": [
        -0.9428012371063232,
        -0.1909046769142151,
        -0.9612025618553162
      ],
      "type": "VEC3"
    },
    {
      "bufferView": 1,
      "byteOffset": 515432,
      "componentType": 5126,
      "count": 752,
      "max": [
        1.0000001192092896,
        1.0000001192092896
      ],
      "min": [
        0.010000006295740604,
        0.010000006295740604
      ],
      "type": "VEC2"
    },
    {
      "bufferView": 0,
      "byteOffset": 1224192,
      "componentType": 5125,
      "count": 2688,
      "type": "SCALAR"
    },
    {
      "bufferView": 2,
      "byteOffset": 1564344,
      "componentType": 5126,
      "count": 6770,
      "max": [
        0.9872310161590576,
        0.8261442184448242,
        0.9872307181358337
      ],
      "min": [
        -0.9872304201126099,
        -0.9975767135620117,
        -0.9872304201126099
      ],
      "type": "VEC3"
    },
    {
      "bufferView": 2,
      "byteOffset": 1645584,
      "componentType": 5126,
      "count": 6770,
      "max": [
        1.0,
        0.829638659954071,
        1.0
      ],
      "min": [
        -1.0,
        -1.0,
        -1.0
      ],
      "type": "VEC3"
    },
    {
      "bufferView": 1,
      "byteOffset": 521448,
      "componentType": 5126,
      "count": 6770,
      "max": [
        1.000000238418579,
        0.8125001788139343
      ],
      "min": [
        0.0,
        0.0
      ],
      "type": "VEC2"
    },
    {
      "bufferView": 0,
      "byteOffset": 1234944,
      "componentType": 5125,
      "count": 39168,
      "type": "SCALAR"
    },
    {
      "bufferView": 2,
      "byteOffset": 1726824,
      "componentType": 5126,
      "count": 1609,
      "max": [
        0.5484762787818909,
        0.9975767135620117,
        0.5484762787818909
      ],
      "min": [
        -0.548475980758667,
        0.8261440992355347,
        -0.5484762787818909
      ],
      "type": "VEC3"
    },
    {
      "bufferView": 2,
      "byteOffset": 1746132,
      "componentType": 5126,
      "count": 1609,
      "max": [
        0.5583015084266663,
        1.0,
        0.5583013296127319
      ],
      "min": [
        -0.5583012104034424,
        0.8296371698379517,
        -0.5583012104034424
      ],
      "type": "VEC3"
    },
    {
      "bufferView": 1,
      "byteOffset": 575608,
      "componentType": 5126,
      "count": 1609,
      "max": [
        1.000000238418579,
        1.0000001192092896
      ],
      "min": [
        0.0,
        0.8125
      ],
      "type": "VEC2"
    },
    {
      "bufferView": 0,
      "byteOffset": 1391616,
      "componentType": 5125,
      "count": 8448,
      "type": "SCALAR"
    },
    {
      "bufferView": 2,
      "byteOffset": 1765440,
      "componentType": 5126,
      "count": 6770,
      "max": [
        0.9872310161590576,
        0.8261442184448242,
        0.9872307181358337
      ],
      "min": [
        -0.9872304201126099,
        -0.9975767135620117,
        -0.9872304201126099
      ],
      "type": "VEC3"
    },
    {
      "bufferView": 2,
      "byteOffset": 1846680,
      "componentType": 5126,
      "count": 6770,
      "max": [
        1.0,
        0.829638659954071,
        1.0
      ],
      "min": [
        -1.0,
        -1.0,
        -1.0
      ],
      "type": "VEC3"
    },
    {
      "bufferView": 1,
      "byteOffset": 588480,
      "componentType": 5126,
      "count": 6770,
      "max": [
        1.000000238418579,
        0.8125001788139343
      ],
      "min": [
        0.0,
        0.0
      ],
      "type": "VEC2"
    },
    {
      "bufferView": 0,
      "byteOffset": 1425408,
      "componentType": 5125,
      "count": 39168,
      "type": "SCALAR"
    },
    {
      "bufferView": 2,
      "byteOffset": 1927920,
      "componentType": 5126,
      "count": 1609,
      "max": [
        0.5484762787818909,
        0.9975767135620117,
        0.5484762787818909
      ],
      "min": [
        -0.548475980758667,
        0.8261440992355347,
        -0.5484762787818909
      ],
      "type": "VEC3"
    },
    {
      "bufferView": 2,
      "byteOffset": 1947228,
      "componentType": 5126,
      "count": 1609,
      "max": [
        0.5583015084266663,
        1.0,
        0.5583013296127319
      ],
      "min": [
        -0.5583012104034424,
        0.8296371698379517,
        -0.5583012104034424
      ],
      "type": "VEC3"
    },
    {
      "bufferView": 1,
      "byteOffset": 642640,
      "componentType": 5126,
      "count": 1609,
      "max": [
        1.000000238418579,
        1.0000001192092896
      ],
      "min": [
        0.0,
        0.8125
      ],
      "type": "VEC2"
    },
    {
      "bufferView": 0,
      "byteOffset": 1582080,
      "componentType": 5125,
      "count": 8448,
      "type": "SCALAR"
    }
  ],
  "asset": {
    "extras": {
      "author": "michelichen029 (https://sketchfab.com/michelichen029)",
      "license": "CC-BY-4.0 (http://creativecommons.org/licenses/by/4.0/)",
      "source": "https://sketchfab.com/3d-models/pohon-jamur-cf919213c10f4017badbbe8d6073451a",
      "title": "Pohon Jamur"
    },
    "generator": "Sketchfab-14.32.1",
    "version": "2.0"
  },
  "bufferViews": [
    {
      "buffer": 0,
      "byteLength": 1615872,
      "name": "floatBufferViews",
      "target": 34963
    },
    {
      "buffer": 0,
      "byteLength": 655512,
      "byteOffset": 1615872,
      "byteStride": 8,
      "name": "floatBufferViews",
      "target": 34962
    },
    {
      "buffer": 0,
      "byteLength": 1966536,
      "byteOffset": 2271384,
      "byteStride": 12,
      "name": "floatBufferViews",
      "target": 34962
    }
  ],
  "buffers": [
    {
      "byteLength": 4237920,
      "uri": "scene.bin"
    }
  ],
  "materials": [
    {
      "doubleSided": true,
      "name": "batang_jamur",
      "pbrMetallicRoughness": {
        "baseColorFactor": [
          0.8,
          0.565897,
          0.26683,
          1.0
        ],
        "metallicFactor": 0.0,
        "roughnessFactor": 0.5
      }
    },
    {
      "doubleSided": true,
      "name": "topi_jamur",
      "pbrMetallicRoughness": {
        "baseColorFactor": [
          0.8,
          0.000306213,
          0.0133569,
          1.0
        ],
        "metallicFactor": 0.0,
        "roughnessFactor": 0.5
      }
    },
    {
      "doubleSided": true,
      "name": "warna_topo",
      "pbrMetallicRoughness": {
        "baseColorFactor": [
          0.8,
          0.715723,
          0.762371,
          1.0
        ],
        "metallicFactor": 0.0,
        "roughnessFactor": 0.5
      }
    },
    {
      "doubleSided": true,
      "name": "mata",
      "pbrMetallicRoughness": {
        "baseColorFactor": [
          0.8,
          0.8,
          0.8,
          1.0
        ],
        "metallicFactor": 0.0,
        "roughnessFactor": 0.5
      }
    },
    {
      "doubleSided": true,
      "name": "matatengah",
      "pbrMetallicRoughness": {
        "baseColorFactor": [
          0.0,
          0.0,
          0.0,
          1.0
        ],
        "metallicFactor": 0.0,
        "roughnessFactor": 0.5
      }
    },
    {
      "doubleSided": true,
      "name": "mata.001",
      "pbrMetallicRoughness": {
        "baseColorFactor": [
          0.8,
          0.8,
          0.8,
          1.0
        ],
        "metallicFactor": 0.0,
        "roughnessFactor": 0.5
      }
    },
    {
      "doubleSided": true,
      "name": "matatengah.001",
      "pbrMetallicRoughness": {
        "baseColorFactor": [
          0.0,
          0.0,
          0.0,
          1.0
        ],
        "metallicFactor": 0.0,
        "roughnessFactor": 0.5
      }
    }
  ],
  "meshes": [
    {
      "name": "Object_0",
      "primitives": [
        {
          "attributes": {
            "NORMAL": 1,
            "POSITION": 0,
            "TEXCOORD_0": 2
          },
          "indices": 3,
          "material": 0,
          "mode": 4
        }
      ]
    },
    {
      "name": "Object_1",
      "primitives": [
        {
          "attributes": {
            "NORMAL": 5,
            "POSITION": 4,
            "TEXCOORD_0": 6
          },
          "indices": 7,
          "material": 1,
          "mode": 4
        }
      ]
    },
    {
      "name": "Object_2",
      "primitives": [
        {
          "attributes": {
            "NORMAL": 9,
            "POSITION": 8,
            "TEXCOORD_0": 10
          },
          "indices": 11,
          "material": 2,
          "mode": 4
        }
      ]
    },
    {
      "name": "Object_3",
      "primitives": [
        {
          "attributes": {
            "NORMAL": 13,
            "POSITION": 12,
            "TEXCOORD_0": 14
          },
          "indices": 15,
          "material": 3,
          "mode": 4
        }
      ]
    },
    {
      "name": "Object_4",
      "primitives": [
        {
          "attributes": {
            "NORMAL": 17,
            "POSITION": 16,
            "TEXCOORD_0": 18
          },
          "indices": 19,
          "material": 4,
          "mode": 4
        }
      ]
    },
    {
      "name": "Object_5",
      "primitives": [
        {
          "attributes": {
            "NORMAL": 21,
            "POSITION": 20,
            "TEXCOORD_0": 22
          },
          "indices": 23,
          "material": 5,
          "mode": 4
        }
      ]
    },
    {
      "name": "Object_6",
      "primitives": [
        {
          "attributes": {
            "NORMAL": 25,
            "POSITION": 24,
            "TEXCOORD_0": 26
          },
          "indices": 27,
          "material": 6,
          "mode": 4
        }
      ]
    }
  ],
  "nodes": [
    {
      "children": [
        1
      ],
      "matrix": [
        1.0,
        0.0,
        0.0,
        0.0,
        0.0,
        2.220446049250313e-16,
        -1.0,
        0.0,
        0.0,
        1.0,
        2.220446049250313e-16,
        0.0,
        0.0,
        0.0,
        0.0,
        1.0
      ],
      "name": "Sketchfab_model"
    },
    {
      "children": [
        2
      ],
      "name": "root"
    },
    {
      "children": [
        3,
        5,
        8,
        11
      ],
      "matrix": [
        1.0,
        0.0,
        0.0,
        0.0,
        0.0,
        2.220446049250313e-16,
        1.0,
        0.0,
        0.0,
        -1.0,
        2.220446049250313e-16,
        0.0,
        0.0,
        0.0,
        0.0,
        1.0
      ],
      "name": "GLTF_SceneRootNode"
    },
    {
      "children": [
        4
      ],
      "matrix": [
        1.0,
        0.0,
        0.0,
        0.0,
        0.0,
        1.0,
        0.0,
        0.0,
        0.0,
        0.0,
        1.0,
        0.0,
        0.008938878774642944,
        1.6398682594299316,
        0.0,
        1.0
      ],
      "name": "batang jamur_2"
    },
    {
      "mesh": 0,
      "name": "Object_4"
    },
    {
      "children": [
        6,
        7
      ],
      "matrix": [
        1.2144112014179465,
        0.07833653107984423,
        0.0,
        0.0,
        -0.021382252775863354,
        0.3314781357383801,
        0.0,
        0.0,
        0.0,
        0.0,
        1.2177472114562988,
        0.0,
        -0.02310306951403618,
        2.9203596115112305,
        0.023918338119983673,
        1.0
      ],
      "name": "topi jamur_3"
    },
    {
      "mesh": 1,
      "name": "Object_6"
    },
    {
      "mesh": 2,
      "name": "Object_7"
    },
    {
      "children": [
        9,
        10
      ],
      "matrix": [
        0.18588483333587646,
        0.0,
        0.0,
        0.0,
        0.0,
        0.0,
        0.18588483333587646,
        0.0,
        0.0,
        -0.22509118914604187,
        0.0,
        0.0,
        -0.5806287527084351,
        1.8148105144500732,
        0.8619675040245056,
        1.0
      ],
      "name": "mata2_4"
    },
    {
      "mesh": 3,
      "name": "Object_9"
    },
    {
      "mesh": 4,
      "name": "Object_10"
    },
    {
      "children": [
        12,
        13
      ],
      "matrix": [
        0.18588483333587646,
        0.0,
        0.0,
        0.0,
        0.0,
        0.0,
        0.18588483333587646,
        0.0,
        0.0,
        -0.22509118914604187,
        0.0,
        0.0,
        0.6338202357292175,
        1.7902761697769165,
        0.8619675040245056,
        1.0
      ],
      "name": "mata1_5"
    },
    {
      "mesh": 5,
      "name": "Object_12"
    },
    {
      "mesh": 6,
      "name": "Object_13"
    }
  ],
  "scene": 0,
  "scenes": [
    {
      "name": "Sketchfab_Scene",
      "nodes": [
        0
      ]
    }
  ]
}
