{
  "accessors": [
    {
      "bufferView": 2,
      "componentType": 5126,
      "count": 26519,
      "max": [
        10.78847885131836,
        1.976709008216858,
        4.882052898406982
      ],
      "min": [
        -9.6552095413208,
        -3.80822491645813,
        0.20847299695014954
      ],
      "type": "VEC3"
    },
    {
      "bufferView": 2,
      "byteOffset": 318228,
      "componentType": 5126,
      "count": 26519,
      "max": [
        0.9999920129776001,
        0.9999898672103882,
        0.9999997615814209
      ],
      "min": [
        -0.999963104724884,
        -0.9999979734420776,
        -0.9999983310699463
      ],
      "type": "VEC3"
    },
    {
      "bufferView": 3,
      "componentType": 5126,
      "count": 26519,
      "max": [
        0.9997358918190002,
        0.9999982714653015,
        0.9999983906745911,
        1.0
      ],
      "min": [
        -0.9967121481895447,
        -0.9898173809051514,
        -0.9999752640724182,
        -1.0
      ],
      "type": "VEC4"
    },
    {
      "bufferView": 1,
      "componentType": 5126,
      "count": 26519,
      "max": [
        0.9902340173721313,
        0.9799849987030029
      ],
      "min": [
        0.00976600032299757,
        0.00976600032299757
      ],
      "type": "VEC2"
    },
    {
      "bufferView": 0,
      "componentType": 5125,
      "count": 149961,
      "type": "SCALAR"
    }
  ],
  "asset": {
    "extras": {
      "author": "NCMA Explore | North Carolina Museum of Art (https://sketchfab.com/ncmaexplore)",
      "license": "CC-BY-4.0 (http://creativecommons.org/licenses/by/4.0/)",
      "source": "https://sketchfab.com/3d-models/coffin-of-amunred-ncma-explore-0f989aa04d6d4bd8a0f7440cdfc21647",
      "title": "Coffin of Amunred | NCMA Explore"
    },
    "generator": "Sketchfab-14.64.0",
    "version": "2.0"
  },
  "bufferViews": [
    {
      "buffer": 0,
      "byteLength": 599844,
      "name": "floatBufferViews",
      "target": 34963
    },
    {
      "buffer": 0,
      "byteLength": 212152,
      "byteOffset": 599844,
      "byteStride": 8,
      "name": "floatBufferViews",
      "target": 34962
    },
    {
      "buffer": 0,
      "byteLength": 636456,
      "byteOffset": 811996,
      "byteStride": 12,
      "name": "floatBufferViews",
      "target": 34962
    },
    {
      "buffer": 0,
      "byteLength": 424304,
      "byteOffset": 1448452,
      "byteStride": 16,
      "name": "floatBufferViews",
      "target": 34962
    }
  ],
  "buffers": [
    {
      "byteLength": 1872756,
      "uri": "scene.bin"
    }
  ],
  "extensionsRequired": [
    "KHR_materials_pbrSpecularGlossiness"
  ],
  "extensionsUsed": [
    "KHR_materials_pbrSpecularGlossiness"
  ],
  "images": [
    {
      "uri": "textures/initialShadingGroup_diffuse.jpeg"
    },
    {
      "uri": "textures/initialShadingGroup_normal.png"
    }
  ],
  "materials": [
    {
      "doubleSided": true,
      "extensions": {
        "KHR_materials_pbrSpecularGlossiness": {
          "diffuseFactor": [
            0.8560599164235543,
            0.8560599164235543,
            0.8560599164235543,
            1.0
          ],
          "diffuseTexture": {
            "index": 0
          },
          "glossinessFactor": 1.0,
          "specularFactor": [
            0.0,
            0.0,
            0.0
          ]
        }
      },
      "name": "initialShadingGroup",
      "normalTexture": {
        "index": 1
      }
    }
  ],
  "meshes": [
    {
      "name": "Object_0",
      "primitives": [
        {
          "attributes": {
            "NORMAL": 1,
            "POSITION": 0,
            "TANGENT": 2,
            "TEXCOORD_0": 3
          },
          "indices": 4,
          "material": 0,
          "mode": 4
        }
      ]
    }
  ],
  "nodes": [
    {
      "children": [
        1
      ],
      "matrix": [
        -3.903189032313145e-17,
        -0.08782935288738303,
        0.0033179717608787323,
        0.0,
        0.08789200335741043,
        -4.391087661352288e-17,
        -9.757972580782871e-18,
        0.0,
        4.878986290391431e-18,
        0.0033179717608787323,
        0.08782935288738303,
        0.0,
        0.0,
        0.0,
        0.0,
        1.0
      ],
      "name": "Sketchfab_model"
    },
    {
      "children": [
        2
      ],
      "name": "Coffin02.obj.cleaner.materialmerger.gles"
    },
    {
      "mesh": 0,
      "name": "Object_2"
    }
  ],
  "samplers": [
    {
      "magFilter": 9729,
      "minFilter": 9987,
      "wrapS": 10497,
      "wrapT": 10497
    }
  ],
  "scene": 0,
  "scenes": [
    {
      "name": "Sketchfab_Scene",
      "nodes": [
        0
      ]
    }
  ],
  "textures": [
    {
      "sampler": 0,
      "source": 0
    },
    {
      "sampler": 0,
      "source": 1
    }
  ]
}
